<?xml version="1.0" encoding="UTF-8" standalone="no"?>
<svg
   xmlns:dc="http://purl.org/dc/elements/1.1/"
   xmlns:cc="http://creativecommons.org/ns#"
   xmlns:rdf="http://www.w3.org/1999/02/22-rdf-syntax-ns#"
   xmlns:svg="http://www.w3.org/2000/svg"
   xmlns="http://www.w3.org/2000/svg"
   xmlns:sodipodi="http://sodipodi.sourceforge.net/DTD/sodipodi-0.dtd"
   xmlns:inkscape="http://www.inkscape.org/namespaces/inkscape"
   height="67px"
   id="Layer_1"
   style="enable-background:new 0 0 67 67;"
   version="1.1"
   viewBox="0 0 67 67"
   width="67px"
   xml:space="preserve"
   inkscape:version="0.91 r"
   sodipodi:docname="skype_circle_color.svg"><metadata
     id="metadata9"><rdf:RDF><cc:Work
         rdf:about=""><dc:format>image/svg+xml</dc:format><dc:type
           rdf:resource="http://purl.org/dc/dcmitype/StillImage" /><dc:title></dc:title></cc:Work></rdf:RDF></metadata><defs
     id="defs7" /><sodipodi:namedview
     pagecolor="#ffffff"
     bordercolor="#666666"
     borderopacity="1"
     objecttolerance="10"
     gridtolerance="10"
     guidetolerance="10"
     inkscape:pageopacity="0"
     inkscape:pageshadow="2"
     inkscape:window-width="1600"
     inkscape:window-height="875"
     id="namedview5"
     showgrid="false"
     inkscape:zoom="3.5223881"
     inkscape:cx="31.938559"
     inkscape:cy="33.5"
     inkscape:window-x="1366"
     inkscape:window-y="0"
     inkscape:window-maximized="1"
     inkscape:current-layer="Layer_1" /><g
     id="g4139"><path
       sodipodi:nodetypes="sssss"
       inkscape:connector-curvature="0"
       id="path3"
       style="clip-rule:evenodd;fill:#3e9dd7;fill-rule:evenodd"
       d="M 34,64 C 17.432,64 4,50.568 4,34 4,17.431 17.432,4 34,4 50.568,4 64,17.431 64,34 64,50.568 50.568,64 34,64 Z" /><path
       sodipodi:nodetypes="cccccccccccccccsscsscsscssc"
       inkscape:connector-curvature="0"
       d="m 35.84,46.38 c -4.82,0.256 -7.075,-0.832 -9.142,-2.809 -2.308,-2.209 -1.381,-4.728 0.499,-4.855 1.879,-0.128 3.007,2.171 4.01,2.812 1.002,0.638 4.812,2.09 6.826,-0.258 2.191,-2.554 -1.458,-3.875 -4.134,-4.276 -3.819,-0.576 -8.642,-2.683 -8.267,-6.836 0.375,-4.149 3.457,-6.277 6.7,-6.577 4.134,-0.383 6.825,0.638 8.954,2.491 2.461,2.14 1.129,4.532 -0.438,4.725 -1.562,0.191 -3.316,-3.52 -6.761,-3.576 -3.551,-0.057 -5.95,3.768 -1.567,4.854 4.385,1.086 9.081,1.532 10.772,5.619 1.692,4.088 -2.629,8.429 -7.452,8.686 z m 13.591,-9.724 c 0.091,-0.68 0.143,-1.372 0.143,-2.075 0,-8.446 -6.784,-15.294 -15.152,-15.294 -0.832,0 -1.647,0.07 -2.441,0.202 C 30.558,18.548 28.864,18 27.042,18 22.046,18 18,22.107 18,27.175 c 0,1.844 0.535,3.557 1.456,4.995 -0.124,0.786 -0.188,1.591 -0.188,2.41 0,8.447 6.781,15.294 15.151,15.294 0.945,0 1.865,-0.093 2.759,-0.257 C 38.567,50.491 40.204,51 41.958,51 46.953,51 51,46.893 51,41.825 51,39.909 50.423,38.128 49.431,36.656 Z"
       style="clip-rule:evenodd;fill:#ffffff;fill-rule:evenodd"
       id="path4137" /></g></svg>