<?xml version="1.0" encoding="UTF-8" standalone="no"?>
<svg
   xmlns:dc="http://purl.org/dc/elements/1.1/"
   xmlns:cc="http://creativecommons.org/ns#"
   xmlns:rdf="http://www.w3.org/1999/02/22-rdf-syntax-ns#"
   xmlns:svg="http://www.w3.org/2000/svg"
   xmlns="http://www.w3.org/2000/svg"
   xmlns:sodipodi="http://sodipodi.sourceforge.net/DTD/sodipodi-0.dtd"
   xmlns:inkscape="http://www.inkscape.org/namespaces/inkscape"
   height="67px"
   id="Layer_1"
   style="enable-background:new 0 0 67 67;"
   version="1.1"
   viewBox="0 0 67 67"
   width="67px"
   xml:space="preserve"
   inkscape:version="0.91 r"
   sodipodi:docname="1450492444_vk_circle_color.svg"><metadata
     id="metadata9"><rdf:RDF><cc:Work
         rdf:about=""><dc:format>image/svg+xml</dc:format><dc:type
           rdf:resource="http://purl.org/dc/dcmitype/StillImage" /><dc:title /></cc:Work></rdf:RDF></metadata><defs
     id="defs7" /><sodipodi:namedview
     pagecolor="#ffffff"
     bordercolor="#666666"
     borderopacity="1"
     objecttolerance="10"
     gridtolerance="10"
     guidetolerance="10"
     inkscape:pageopacity="0"
     inkscape:pageshadow="2"
     inkscape:window-width="1600"
     inkscape:window-height="875"
     id="namedview5"
     showgrid="true"
     showguides="true"
     inkscape:snap-global="true"
     inkscape:snap-bbox="true"
     inkscape:bbox-paths="true"
     inkscape:bbox-nodes="true"
     inkscape:snap-bbox-edge-midpoints="true"
     inkscape:snap-bbox-midpoints="true"
     inkscape:zoom="7.0447762"
     inkscape:cx="6.2444562"
     inkscape:cy="25.624715"
     inkscape:window-x="1366"
     inkscape:window-y="0"
     inkscape:window-maximized="1"
     inkscape:current-layer="Layer_1"
     inkscape:guide-bbox="true"><inkscape:grid
       type="xygrid"
       id="grid3355" /></sodipodi:namedview><path
     d="M 35.135594,64 C 18.567594,64 5.1355932,50.568 5.1355932,34 c 0,-16.569 13.4320008,-30 30.0000008,-30 16.568,0 30,13.431 30,30 0,16.568 -13.432,30 -30,30 z"
     style="clip-rule:evenodd;fill:#4c75a3;fill-rule:evenodd;fill-opacity:1"
     id="path3"
     inkscape:connector-curvature="0"
     sodipodi:nodetypes="sssss" /><path
     style="fill:#ffffff"
     d="m 46.146527,44.467274 c -1.076376,-0.185067 -1.962841,-0.867504 -3.764451,-2.898026 -1.677065,-1.890154 -2.440354,-2.289289 -3.182963,-1.664423 -0.494765,0.416317 -0.775814,1.205604 -0.939121,2.637373 -0.210956,1.849569 -0.345381,1.943274 -2.789086,1.944316 -3.058046,0.0013 -5.720856,-0.847203 -8.058157,-2.567741 -3.005675,-2.212543 -6.691201,-7.60763 -9.916232,-14.515955 -0.781222,-1.67345 -0.980732,-2.341184 -0.791162,-2.647914 0.169191,-0.273758 1.001265,-0.351285 3.776601,-0.351877 2.816126,-6.07e-4 2.888897,0.005 3.25549,0.251101 0.206237,0.138444 0.460077,0.423989 0.564088,0.634545 0.104013,0.210555 0.535561,1.115903 0.958997,2.011885 1.61444,3.416118 3.550063,6.199544 4.500853,6.472227 1.106951,0.317469 1.54092,-1.121559 1.44021,-4.775698 -0.06144,-2.229175 -0.20788,-2.927012 -0.713542,-3.400211 -0.373246,-0.349284 -0.935732,-0.642687 -1.232102,-0.642687 -0.329667,0 -0.366286,-0.161418 -0.110414,-0.486708 0.593674,-0.754734 1.673133,-0.987627 4.567825,-0.985508 2.324766,0.0017 3.269888,0.121439 3.877046,0.491177 0.624945,0.380568 0.651556,0.569936 0.608992,4.333452 -0.04299,3.801633 7.78e-4,4.424831 0.349261,4.935922 0.323745,0.475259 0.532042,0.587724 0.913698,0.493337 1.043086,-0.257963 3.764311,-4.377446 5.181318,-7.843649 0.440842,-1.078365 0.568426,-1.249398 1.027016,-1.376776 0.231131,-0.0642 1.835506,-0.111983 3.768338,-0.112238 2.984151,-3.97e-4 3.409647,0.02143 3.752089,0.192507 0.37396,0.186816 0.385878,0.212249 0.374667,0.799906 -0.02076,1.086706 -0.955905,2.674681 -3.747619,6.36361 -2.309854,3.052203 -2.522272,3.508093 -2.022625,4.340883 0.127452,0.212435 1.113358,1.255295 2.1909,2.317467 2.550322,2.513936 3.646102,3.985538 3.646102,4.896619 0,0.454945 -0.442451,0.886191 -1.080986,1.053615 -0.481898,0.126354 -5.770944,0.208492 -6.405031,0.09947 z"
     id="path3347"
     inkscape:connector-curvature="0" /></svg>